<?xml version="1.0" encoding="iso-8859-1"?>
<!-- Generator: Adobe Illustrator 16.0.0, SVG Export Plug-In . SVG Version: 6.00 Build 0)  -->
<!DOCTYPE svg PUBLIC "-//W3C//DTD SVG 1.1//EN" "http://www.w3.org/Graphics/SVG/1.1/DTD/svg11.dtd">
<svg version="1.1" id="Capa_1" xmlns="http://www.w3.org/2000/svg" xmlns:xlink="http://www.w3.org/1999/xlink" x="0px" y="0px"
	 width="76.226px" height="76.226px" viewBox="0 0 76.226 76.226" style="enable-background:new 0 0 76.226 76.226;"
	 xml:space="preserve">
<g>
	<path d="M56.896,60.201H6.719C2.911,60.201,0,57.289,0,53.481v-40.32c0-3.808,2.911-6.72,6.719-6.72H64.96
		c3.808,0,6.72,2.912,6.72,6.721v20.384c-1.343-1.344-2.912-2.464-4.479-3.136V13.161c0-1.345-0.896-2.24-2.239-2.24H6.721
		c-1.344,0-2.239,0.896-2.239,2.24v40.32c0,1.345,0.896,2.239,2.239,2.239l0,0h42.335C51.073,57.96,53.984,59.53,56.896,60.201z
		 M51.297,31.752v-5.376H31.585v16.801c0,3.359-3.36,6.049-7.616,6.049c-4.256,0-7.615-2.688-7.615-6.049
		c0-3.36,3.359-6.049,7.615-6.049c1.345,0,2.464,0.226,3.584,0.673V17.417h27.552v12.32c-0.896,0.224-1.791,0.672-2.688,1.119
		C51.971,31.08,51.745,31.53,51.297,31.752z M51.297,24.361V21.45H31.585v2.911H51.297z M46.369,37.128
		c-3.584,0.448-6.271,2.913-6.271,6.049c0,2.689,2.019,4.929,4.93,5.601c-0.672-2.688-0.672-5.376,0-8.062
		C45.475,39.369,45.921,38.248,46.369,37.128z M67.201,56.394c-6.496,3.809-14.783,1.566-18.594-4.93
		c-3.807-6.496-1.565-14.782,4.93-18.592c6.496-3.808,14.783-1.567,18.593,4.929C75.938,44.296,73.698,52.81,67.201,56.394z
		 M66.081,54.602c5.601-3.138,7.394-10.08,4.257-15.456c-3.137-5.602-10.08-7.394-15.456-4.256
		c-5.601,3.136-7.394,10.078-4.257,15.455C53.762,55.946,60.705,57.738,66.081,54.602z M70.673,55.666l-5.815,3.36l4.48,7.759
		l5.818-3.361L70.673,55.666z M75.713,64.682l-5.822,3.358c0.896,1.566,2.911,2.239,4.702,1.344
		C76.387,68.49,76.609,66.25,75.713,64.682z"/>
</g>
<g>
</g>
<g>
</g>
<g>
</g>
<g>
</g>
<g>
</g>
<g>
</g>
<g>
</g>
<g>
</g>
<g>
</g>
<g>
</g>
<g>
</g>
<g>
</g>
<g>
</g>
<g>
</g>
<g>
</g>
</svg>
